# xmcd CD database file
#
# Track frame offsets:
#	150
#	25052
#	46925
#	71840
#
# Disc length: 1246 seconds
#
# Revision: 1
# Processed by: cddbd v1.5.1PL0 Copyright (c) Steve Scherf et al.
# Submitted via: CDex 1.51
#
DISCID=2e04dc04
DTITLE=上田まり - さよならしてあげる
DYEAR=1996
DGENRE=J-POP
TTITLE0=さよならしてあげる
TTITLE1=love songが好き
TTITLE2=さよならしてあげる (original karaoke)
TTITLE3=love songが好き (original karaoke)
EXTD=YEAR: 1996
EXTT0=
EXTT1=
EXTT2=
EXTT3=
PLAYORDER=
